<?xml version="1.0" standalone="no"?><!DOCTYPE svg PUBLIC "-//W3C//DTD SVG 1.1//EN" "http://www.w3.org/Graphics/SVG/1.1/DTD/svg11.dtd"><svg t="1524472385986" class="icon" style="" viewBox="0 0 1024 1024" version="1.1" xmlns="http://www.w3.org/2000/svg" p-id="10752" xmlns:xlink="http://www.w3.org/1999/xlink" width="48" height="48"><defs><style type="text/css"></style></defs><path d="M320.6 401.6V511l95-54.6zM320.6 513.2v109.3l0.7 0.4 95.1-55.3z" fill="#7AD56F" p-id="10753"></path><path d="M416.4 567.6l0.7-0.3-0.2-110.2-1.3-0.7-95 54.6v2.2zM416.9 455.7l-0.2-109.6-96.1 55.5 95 54.8zM512.4 399l0.3-107.6-0.7-0.4-93.3 54z" fill="#7AD56F" p-id="10754"></path><path d="M512.3 400.7l0.1-1.7-93.7-54-2 1.1 0.2 109.6z" fill="#7AD56F" p-id="10755"></path><path d="M415.6 456.4l1.3 0.7v-1.4z" fill="#7AD56F" p-id="10756"></path><path d="M512.3 400.7l-95.4 55v1.4L512 512z" fill="#7AD56F" p-id="10757"></path><path d="M416.8 678l0.4 0.4v-0.7z" fill="#38B797" p-id="10758"></path><path d="M417.1 568.1l-0.7-0.5-95.1 55.3 95.5 55.1 0.4-0.3zM417.1 567.3l-0.7 0.3 0.7 0.5zM416.8 678l-93.3 54 93.9 54.2-0.2-107.8z" fill="#38B797" p-id="10759"></path><path d="M417.4 786.2L323.5 732l-2.9 1.6v110l96.8-56zM321.3 622.9l-0.7 0.4v107.1l2.9 1.6 93.3-54z" fill="#38B797" p-id="10760"></path><path d="M320.6 733.6l2.9-1.6-2.9-1.6z" fill="#38B797" p-id="10761"></path><path d="M416.4 235.8l-95.7-55.3v107.9l2.3 1.3zM320.7 288.4l-0.1 2.6 2.4-1.3zM416.5 235.7l-0.1 0.1 0.1 0.1zM513.1 180l-2.5 1.4 2.5 1.3z" fill="#97E34A" p-id="10762"></path><path d="M416.4 235.8l0.1-0.1-0.2-107.8-0.4-0.2-1-1.6-94.3 54.4h0.1z" fill="#97E34A" p-id="10763"></path><path d="M416.3 127.9v-2.5l-1.4 0.7 1 1.6zM416.3 127.9l0.2 107.8 94.1-54.3z" fill="#97E34A" p-id="10764"></path><path d="M510.6 181.4l2.5-1.4 0.3-109.1-1.4-0.9-0.6 0.4-95.1 55v2.5z" fill="#97E34A" p-id="10765"></path><path d="M224.9 458.6l-1.5-0.8-94.1 54.3 94.6 54.6 0.6-0.3z" fill="#B8EE75" p-id="10766"></path><path d="M224.9 456.8l-1.5 1 1.5 0.8zM320.6 511l-1.8 1.1 1.8 1.1zM224.5 566.4l-0.6 0.3 0.6 0.3zM223.9 566.7l-94.6-54.6-0.1-0.1v108.6l0.8 0.2z" fill="#B8EE75" p-id="10767"></path><path d="M130 620.8l-0.8-0.2v0.6zM224 679.5l4.3-2.5-4.3-2.5zM224 674.5l0.5-107.5-0.6-0.3-93.9 54.1 1.1 0.1z" fill="#B8EE75" p-id="10768"></path><path d="M224 674.5l-92.9-53.6-1.1-0.1-0.8 0.4V733l1.4 0.8 93.4-54.3z" fill="#B8EE75" p-id="10769"></path><path d="M225.6 788.7l95 54.9v-110z" fill="#99E968" p-id="10770"></path><path d="M320.6 730.4L228.3 677l-4.3 2.5-0.4 108 2 1.2 95-55.1z" fill="#99E968" p-id="10771"></path><path d="M130.6 733.8l93 53.7 0.4-108z" fill="#99E968" p-id="10772"></path><path d="M223.4 457.8l-94.2-53.6v107.7l0.1 0.2z" fill="#E8FB58" p-id="10773"></path><path d="M224.9 456.8l0.5-110.3-0.4-0.2-95.8 55.3v2.6l94.2 53.6z" fill="#E8FB58" p-id="10774"></path><path d="M129.2 401.6l95.8-55.3-95.8-55.3zM225 346.3l0.4 0.2v-0.5zM320.7 180.5h-0.2l-93.2 54 93.4 53.9z" fill="#E8FB58" p-id="10775"></path><path d="M225.4 346l95.2-55 0.1-2.6-93.4-53.9-1.5 0.8zM225.8 235.3L129.2 291l95.8 55.3 0.4-0.3z" fill="#E8FB58" p-id="10776"></path><path d="M607.4 346.1l-0.5-0.3v0.6zM512.4 399l1.5 0.9 93-53.5v-0.6l-94.2-54.4z" fill="#6DD78A" p-id="10777"></path><path d="M512.4 399l-0.1 1.7 1.6-0.8zM607.1 453.8l2.6 1.4 93-54.1-95.3-55-0.5 0.3z" fill="#6DD78A" p-id="10778"></path><path d="M607.1 456.7l2.6-1.5-2.6-1.4zM606.9 346.4l-93 53.5 93.2 53.9z" fill="#6DD78A" p-id="10779"></path><path d="M513.9 399.9l-1.6 0.8L512 512l95.1-55.3v-2.9z" fill="#6DD78A" p-id="10780"></path><path d="M607.6 677.8l1.2-0.6-1.2-0.7z" fill="#17A4B0" p-id="10781"></path><path d="M607.4 567.5l0.2 109 1.2 0.7 94.6-54.7-95.6-55.1zM512.6 622.5l-0.9 0.5-0.3 109.7 0.6 0.3 95.6-55.2v-1.3z" fill="#17A4B0" p-id="10782"></path><path d="M607.6 676.5l-0.2-109-94.8 55zM607.8 567.4l-0.4-0.3v0.4zM511.7 623l0.9-0.5-0.9-0.5z" fill="#17A4B0" p-id="10783"></path><path d="M511.7 622l0.9 0.5 94.8-55v-0.4L512 512zM703.4 622.5V512l-95.6 55.4zM609.7 455.2l93.7 54.1V401.5l-0.7-0.4z" fill="#17A4B0" p-id="10784"></path><path d="M609.7 455.2l-2.6 1.5 0.3 110.4 0.4 0.3 95.6-55.4v-2.7zM607.4 567.1l-0.3-110.4L512 512z" fill="#17A4B0" p-id="10785"></path><path d="M608.8 677.2l-1.2 0.6 0.3 110.4 95.5-55.2v-2zM703.4 731V622.5l-94.6 54.7z" fill="#1A98B0" p-id="10786"></path><path d="M607.7 788.3l0.2-0.1-0.3-110.4L512 733zM703.5 843.6v-0.1h-0.1zM607.9 788.4l95.5 55.1V733l-95.5 55.2z" fill="#1A98B0" p-id="10787"></path><path d="M607.7 788.3l0.2 0.1v-0.2zM511.3 733.4l-0.3 106.8 3.3 1.9 93.4-53.8L512 733zM511 844.1l3.3-2-3.3-1.9zM607.9 788.4l0.3 108 0.5 1.9 94.8-54.7-0.1-0.1z" fill="#1A98B0" p-id="10788"></path><path d="M608.2 896.4v1.3l0.2 0.8 0.3-0.2zM514.3 842.1l93.9 54.3-0.3-108-0.2-0.1z" fill="#1A98B0" p-id="10789"></path><path d="M511 844.1l-0.4 109.1 1.4 0.8 96.4-55.5-0.2-0.8v-1.3l-93.9-54.3z" fill="#1A98B0" p-id="10790"></path><path d="M703.4 290.5l0.1-110-96.3 55.6z" fill="#6DD78A" p-id="10791"></path><path d="M607.2 236.1l-0.5-0.4v0.7z" fill="#53D68E" p-id="10792"></path><path d="M606.7 235.7l0.5 0.4 96.3-55.6-95.8-55.2-1.3 0.7z" fill="#53D68E" p-id="10793"></path><path d="M606.7 235.7l-0.3-109.7-93.3 54v2.7z" fill="#53D68E" p-id="10794"></path><path d="M607.7 125.3l-1.3-0.8v1.5zM606.4 126v-1.5l-93-53.6-0.3 109.1z" fill="#53D68E" p-id="10795"></path><path d="M800.3 457.4l-0.1 107.8 1.2 0.7 93.4-53.9z" fill="#1EBAC7" p-id="10796"></path><path d="M801.4 565.9l-1.2-0.7v1.5z" fill="#1EBAC7" p-id="10797"></path><path d="M800 786.1v1.6l1.3-0.6-0.4-0.5z" fill="#20E9DB" p-id="10798"></path><path d="M800.1 678.4l-0.1 107.7 0.9 0.5 0.4 0.5 93.5-54.1zM894.8 619.9V512l-93.4 53.9z" fill="#20E9DB" p-id="10799"></path><path d="M800.2 566.7l-0.1 110.5 94.7-54.7v-2.6l-93.4-54zM800.1 678.4v-1.2l-1 0.6z" fill="#20E9DB" p-id="10800"></path><path d="M894.8 733V622.5l-94.7 54.7v1.2z" fill="#20E9DB" p-id="10801"></path><path d="M703.7 290.7l-0.3-0.2v0.4z" fill="#21A7A4" p-id="10802"></path><path d="M703.7 290.7l95.4-54.9-95.6-55.3-0.1 110z" fill="#21A7A4" p-id="10803"></path><path d="M799.5 344.9l0.9-0.6 0.1-107.8-1.4-0.7-95.4 54.9zM893.5 290.2l-93-53.7-0.1 107.8z" fill="#21A7A4" p-id="10804"></path><path d="M800.3 457.4l94.5 54.6V401.1l-94.5 54.8zM800.4 345.4v-1.1l-0.9 0.6zM800.3 455.9l94.5-54.8v-2.3l-94.4-53.4z" fill="#1EBAC7" p-id="10805"></path><path d="M893.5 290.2l-93.1 54.1v1.1l94.4 53.4V291z" fill="#1EBAC7" p-id="10806"></path></svg>